# xmcd
#
# Track frame offsets: 
#        150
#        11134
#        22657
#        33543
#        43712
#        56455
#        69866
#        84339
#        96159
#        107800
#        118762
#        132761
#        148352
#        162848
#        177619
#        189054
#        203428
#        213632
#        223644
#        235288
#        247539
#        259913
#        271682
#        283144
#        294997
#
# Disc length: 4097 seconds
#
# Revision: 0
# Processed by: cddbd v1.5.2PL0 Copyright (c) Steve Scherf et al.
# Submitted via: ExactAudioCopyFreeDBPlugin 1.0
#
DISCID=630fff19
DTITLE=Various Artist - The First Ladies Of Country
DYEAR=2008
DGENRE=Country
TTITLE0=Dolly Parton - It Wasn't God Who Made Honky Tonk Angels
TTITLE1=Kitty Wells - Honky Tonk Walk
TTITLE2=Loretta Lynn - Crazy (Live)
TTITLE3=Patsy Cline - Three Cigarettes In An Ashtray
TTITLE4=Lynn Anderson - Rose Garden
TTITLE5=Patti Page - Tennessee Waltz
TTITLE6=Jeannie C. Riley - Harper Valley P.T.A.
TTITLE7=Billie Jo Spears - Ease The Want In Me
TTITLE8=Brenda Lee - Silver Threads And Golden Needles
TTITLE9=Donna Fargo - Wishful Thinking
TTITLE10=Rita Remington - Angel Of The Morning
TTITLE11=Holly Dunn - Daddy's Hands
TTITLE12=Loretta Lynn - Coal Miner's Daughter
TTITLE13=Anne Murray - Both Sides Now
TTITLE14=The Kendalls - Heaven's Just A Sin Away
TTITLE15=Deborah Allen - I Will Always Love You
TTITLE16=Dolly Parton - Release Me
TTITLE17=Rita Remington - Would You Lay With Me (In A Field Of Stone)?
TTITLE18=Barbara Fairchild - Cheatin' Is
TTITLE19=Sammi Smith - Send Me The Pillow That You Dream On
TTITLE20=Billie Jo Spears - The Cheatin' Kind
TTITLE21=Jeannie C. Riley - Okie From Muskogee
TTITLE22=Patsy Cline - Walkin' After Midnight
TTITLE23=Skeeter Davis - The End Of The World
TTITLE24=Lynn Anderson - Stand By Your Man
EXTD=Union Square Music Ltd. - METRCD223
EXTT0=
EXTT1=
EXTT2=
EXTT3=
EXTT4=
EXTT5=
EXTT6=
EXTT7=
EXTT8=
EXTT9=
EXTT10=
EXTT11=
EXTT12=
EXTT13=
EXTT14=
EXTT15=
EXTT16=
EXTT17=
EXTT18=
EXTT19=
EXTT20=
EXTT21=
EXTT22=
EXTT23=
EXTT24=
PLAYORDER=
